<svg viewBox="0 0 150 40" xmlns="http://www.w3.org/2000/svg"><path class="st0" d="M2.93 2.86H0V.24h6.31v19.39c0 1.5.35 2.51 1.88 2.51.56 0 .94-.04.94-.04l-.03 2.81s-.7.07-1.5.07c-2.51 0-4.67-1.01-4.67-5.13V2.86zM20.3 6.8c5.02 0 7.64 3.7 7.64 8.27 0 .45-.1 1.29-.1 1.29H14.93c.21 3.91 2.96 6 6.1 6 3.07 0 5.27-1.99 5.27-1.99l1.4 2.48s-2.65 2.44-6.87 2.44c-5.55 0-9.35-4.01-9.35-9.24 0-5.62 3.8-9.25 8.82-9.25zm4.15 7.4c-.1-3.1-1.99-4.71-4.22-4.71-2.58 0-4.67 1.74-5.16 4.71h9.38zM53.23 22.15c-1.33 0-3.77-.45-3.77-4.05V9.84h4.22V7.22h-4.22V2.37h-3.31v4.85h-8.92v-.94c0-3.17 2.2-3.49 3.31-3.49.8 0 1.26.1 1.26.1V.1s-.66-.1-1.6-.1c-2.09 0-6.35.7-6.35 6.35v.87H30.9v2.62h2.93v12.42h-2.76v2.62h9.38v-2.62h-3.24V9.84h8.85v8.58c0 5.9 4.5 6.59 6.73 6.59.73 0 1.22-.07 1.22-.07v-2.83c.02 0-.29.04-.78.04zM58 2.86h-2.93V.24h6.31v19.39c0 1.5.35 2.51 1.88 2.51.56 0 .94-.04.94-.04l-.03 2.79s-.7.07-1.5.07c-2.51 0-4.67-1.01-4.67-5.13V2.86zM69.73 29.37c1.5 0 2.65-1.05 3.24-2.44l.73-1.74-6.17-15.35H65.3V7.22h8.06v2.62h-2.34l3.94 10.5c.24.77.31 1.53.31 1.53h.1s.14-.77.42-1.53l3.91-10.5h-2.27V7.22h7.81v2.62h-2.2l-6.98 17.82c-1.19 3-3.49 4.53-6.21 4.53-2.27 0-3.8-1.12-3.8-1.12l1.15-2.55c.01.01 1.03.85 2.53.85z" style="fill:#444" transform="translate(0 4) scale(1.00942)"/><path class="st1" d="M87.55 21.21h3.63v3.66h-3.63v-3.66zM97.5 22.25h2.76V10.57c0-.49-.28-.73-.77-.73h-2.16V7.22h3.98c1.5 0 2.23.66 2.23 1.95v.91c0 .56-.1 1.01-.1 1.01h.07c.87-2.09 3.42-4.29 6.28-4.29 2.83 0 4.57 1.29 5.16 4.15h.07c.98-2.2 3.42-4.15 6.31-4.15 3.91 0 5.76 2.27 5.76 6.77v8.69h2.79v2.62h-6.17V14.3c0-2.48-.45-4.43-3.1-4.43-3.31 0-5.2 3.38-5.2 6.87v5.51h2.76v2.62h-6.14V14.3c0-2.3-.35-4.43-3.07-4.43-3.35 0-5.3 3.56-5.3 7.01v5.37h2.79v2.62H97.5v-2.62zM140.96 6.8c5.02 0 7.64 3.7 7.64 8.27 0 .45-.1 1.29-.1 1.29h-12.91c.21 3.91 2.96 6 6.1 6 3.07 0 5.27-1.99 5.27-1.99l1.4 2.48s-2.65 2.44-6.87 2.44c-5.55 0-9.35-4.01-9.35-9.24 0-5.62 3.8-9.25 8.82-9.25zm4.15 7.4c-.1-3.1-1.99-4.71-4.22-4.71-2.58 0-4.67 1.74-5.16 4.71h9.38z" style="fill:#adadad" transform="translate(0 4) scale(1.00942)"/></svg>