<?xml version="1.0" standalone="no"?>
<!DOCTYPE svg PUBLIC "-//W3C//DTD SVG 20010904//EN"
 "http://www.w3.org/TR/2001/REC-SVG-20010904/DTD/svg10.dtd">
<svg version="1.0" xmlns="http://www.w3.org/2000/svg"
 width="700.000000pt" height="700.000000pt" viewBox="0 0 700.000000 700.000000"
 preserveAspectRatio="xMidYMid meet">
<metadata>
Created by potrace 1.14, written by Peter Selinger 2001-2017
</metadata>
<g transform="translate(0.000000,700.000000) scale(0.100000,-0.100000)"
fill="#000000" stroke="none">
<path d="M3278 6995 c-1 -1 -41 -5 -88 -9 -47 -4 -96 -8 -110 -10 -14 -2 -46
-7 -71 -10 -63 -9 -103 -16 -239 -42 -138 -26 -489 -136 -607 -190 -28 -13
-54 -24 -58 -24 -13 0 -305 -149 -380 -195 -150 -90 -371 -245 -437 -305 -9
-8 -41 -35 -71 -60 -56 -45 -293 -281 -357 -355 -30 -34 -69 -82 -143 -175
-227 -286 -445 -710 -565 -1100 -55 -177 -106 -421 -128 -605 -26 -227 -26
-683 0 -822 2 -10 7 -43 10 -73 7 -62 12 -94 26 -165 6 -27 12 -59 14 -71 25
-131 131 -486 170 -569 8 -16 24 -54 35 -83 26 -66 152 -318 186 -372 14 -22
25 -42 25 -44 0 -3 40 -65 88 -138 289 -435 681 -811 1131 -1082 350 -212 803
-379 1206 -446 95 -15 116 -18 175 -25 30 -3 73 -9 95 -12 22 -4 850 -8 1840
-10 1742 -3 1801 -2 1841 16 50 23 90 63 115 116 18 39 19 92 16 1840 -2 990
-6 1818 -10 1840 -3 22 -9 65 -12 95 -8 66 -9 79 -30 200 -65 378 -210 779
-411 1132 -46 80 -197 311 -218 334 -6 7 -20 24 -31 40 -11 15 -31 41 -45 58
-14 17 -34 42 -45 55 -93 114 -262 287 -405 416 -72 65 -246 196 -360 272
-458 304 -1001 503 -1525 559 -27 3 -63 8 -80 10 -34 5 -541 14 -547 9z m402
-1669 c287 -27 576 -129 825 -293 471 -311 779 -826 822 -1375 11 -143 7 -275
-13 -433 -10 -86 -60 -272 -103 -390 -22 -58 -129 -263 -173 -331 -186 -287
-461 -525 -774 -670 -145 -67 -369 -132 -514 -149 -19 -2 -55 -7 -80 -10 -55
-6 -317 -7 -346 -1 -12 2 -45 7 -75 11 -192 24 -428 100 -608 197 -301 162
-542 393 -721 691 -79 133 -175 364 -196 476 -3 12 -11 51 -19 85 -7 33 -17
85 -20 115 -4 30 -9 63 -11 75 -5 27 -5 299 1 350 5 45 17 124 29 196 3 14 14
60 25 102 184 683 751 1207 1446 1333 11 2 34 7 50 10 17 3 73 8 125 11 52 3
96 7 98 8 3 4 164 -2 232 -8z"/>
</g>
</svg>
